<svg xmlns="http://www.w3.org/2000/svg" viewBox="0 0 42 42"><defs><style>.a{fill:#ffc905;fill-rule:evenodd;}.b{fill:#3c3c3c;}</style></defs><path class="a" d="M23.38,20.11l12.48-5.8V28l-12.48,6.4Z"/><path class="b" d="M29.17,18a1,1,0,0,1-.45-.11L16.35,11.53a1,1,0,0,1-.43-1.35,1,1,0,0,1,1.34-.43L29.63,16.1A1,1,0,0,1,29.17,18Z"/><path class="b" d="M23.16,35.37a4.13,4.13,0,0,1-1.88-.45l-9.53-4.85a4.26,4.26,0,0,1-2.3-3.79V15.72a4.23,4.23,0,0,1,2.3-3.78l9.53-4.86a4.13,4.13,0,0,1,3.75,0l9.53,4.85a4.22,4.22,0,0,1,2.3,3.79V26.28a4.22,4.22,0,0,1-2.3,3.79L25,34.92A4.12,4.12,0,0,1,23.16,35.37Zm0-26.74a2.2,2.2,0,0,0-1,.23h0l-9.53,4.85a2.25,2.25,0,0,0-1.21,2V26.28a2.26,2.26,0,0,0,1.22,2l9.52,4.85a2.12,2.12,0,0,0,1.93,0l9.53-4.85a2.25,2.25,0,0,0,1.21-2V15.72a2.25,2.25,0,0,0-1.21-2L24.12,8.86A2.15,2.15,0,0,0,23.16,8.63ZM21.74,8h0Z"/><path class="b" d="M23.16,21.33a1,1,0,0,1-.45-.1l-12-6a1,1,0,0,1-.44-1.34,1,1,0,0,1,1.34-.45l11.59,5.79,11.58-5.79a1,1,0,1,1,.9,1.79l-12,6A1,1,0,0,1,23.16,21.33Z"/><path class="b" d="M23.16,35.37a1,1,0,0,1-1-1v-14a1,1,0,0,1,2,0v14A1,1,0,0,1,23.16,35.37Z"/><path class="b" d="M29.17,22.67a1,1,0,0,1-1-1V17a1,1,0,0,1,2,0v4.68A1,1,0,0,1,29.17,22.67Z"/><path class="b" d="M6.64,13.2a6.57,6.57,0,1,1,6.57-6.57,1,1,0,0,1-2,0A4.58,4.58,0,1,0,6.64,11.2a1,1,0,1,1,0,2Z"/><path class="b" d="M12.14,9.38a1,1,0,0,1-.7-.29l-2-2a1,1,0,0,1,1.41-1.41L12.14,7l1.31-1.3a1,1,0,0,1,1.41,1.41l-2,2A1,1,0,0,1,12.14,9.38Z"/></svg>