<svg xmlns="http://www.w3.org/2000/svg" viewBox="0 0 42 42"><defs><style>.a{fill:#ffc905;}.b{fill:#3c3c3c;}</style></defs><circle class="a" cx="24.99" cy="25" r="7"/><path class="b" d="M21.21,15.09a1.87,1.87,0,0,1-.83-.19L18,13.76,15.73,14.9a2,2,0,0,1-1.64,0,1.63,1.63,0,0,1-1-1.43V6.2a1,1,0,0,1,1-1H22a1,1,0,0,1,.71.29A1,1,0,0,1,23,6.2v7.29a1.64,1.64,0,0,1-1,1.44A1.76,1.76,0,0,1,21.21,15.09ZM22,13.45h0ZM18,11.65a1,1,0,0,1,.44.1L21,13V7.2H15.1V13l2.5-1.22A1,1,0,0,1,18,11.65Z"/><path class="b" d="M13.11,28.91H7.46A2.28,2.28,0,0,1,5.2,26.62V7.47A2.26,2.26,0,0,1,7.45,5.2H28.62a2.29,2.29,0,0,1,1.61.67,2.31,2.31,0,0,1,.66,1.61V13.1a1,1,0,1,1-2,0V7.47a.27.27,0,0,0-.27-.27H7.46a.27.27,0,0,0-.26.27V26.63a.28.28,0,0,0,.27.28h5.64a1,1,0,0,1,0,2Z"/><path class="b" d="M25,33.84A8.9,8.9,0,1,1,33.84,25,8.9,8.9,0,0,1,25,33.84Zm0-15.79A6.9,6.9,0,1,0,31.84,25,6.91,6.91,0,0,0,25,18.05Z"/><path class="b" d="M35.8,36.8a1,1,0,0,1-.7-.29l-5.28-5.27a1,1,0,0,1,1.42-1.42l5.27,5.28a1,1,0,0,1,0,1.41A1,1,0,0,1,35.8,36.8Z"/><path class="b" d="M28.89,27.92a1,1,0,0,1-1-1V22a1,1,0,1,1,2,0v4.93A1,1,0,0,1,28.89,27.92Z"/><path class="b" d="M25,27.92a1,1,0,0,1-1-1V22a1,1,0,0,1,2,0v4.93A1,1,0,0,1,25,27.92Z"/><path class="b" d="M21,24a1,1,0,0,1-1-1V22a1,1,0,1,1,2,0v1A1,1,0,0,1,21,24Z"/><path class="b" d="M21,27.92a1,1,0,0,1-1-1v-1a1,1,0,0,1,2,0v1A1,1,0,0,1,21,27.92Z"/></svg>