<svg xmlns="http://www.w3.org/2000/svg" viewBox="0 0 42 42"><defs><style>.a{fill:#3c3c3c;}.b{fill:#ffc905;}</style></defs><path class="a" d="M30.15,36.9a2.12,2.12,0,0,1-1.09-.31l-2-1.28-1.93,1.18a2,2,0,0,1-2.17,0L21,35.31l-1.93,1.18a2,2,0,0,1-2.17,0L15,35.31l-2.08,1.28a2.07,2.07,0,0,1-1.7.21l-2.07-.64A2,2,0,0,1,7.9,34.94L7.21,33a1.91,1.91,0,0,1,.25-1.73l1.31-1.86L7.55,27.69a1.93,1.93,0,0,1,0-2.2l1.22-1.72L7.55,22.05a1.93,1.93,0,0,1,0-2.2h0l1.22-1.72L7.55,16.41a1.93,1.93,0,0,1,0-2.2l1.22-1.72L7.46,10.63A1.91,1.91,0,0,1,7.21,8.9L7.9,7A2,2,0,0,1,9.18,5.75l2.06-.65a2,2,0,0,1,1.7.22L15,6.6l1.93-1.19a2.09,2.09,0,0,1,2.18,0L21,6.6l1.93-1.19a2.09,2.09,0,0,1,2.18,0L27,6.6l2.08-1.28a2,2,0,0,1,1.7-.22l2.06.65A2,2,0,0,1,34.1,7l.69,1.94a1.91,1.91,0,0,1-.25,1.73l-1.31,1.86,1.22,1.72a1.93,1.93,0,0,1,0,2.2l-1.22,1.72,1.22,1.72a1.93,1.93,0,0,1,0,2.2l-1.22,1.72,1.22,1.72a1.93,1.93,0,0,1,0,2.2l-1.22,1.72,1.31,1.86A1.91,1.91,0,0,1,34.79,33l-.69,1.94a2,2,0,0,1-1.27,1.22l-2.07.64A1.86,1.86,0,0,1,30.15,36.9ZM9.23,26.59l1.22,1.72a1.93,1.93,0,0,1,0,2.2L9.09,32.43l.69,1.84,2.06.62,2.07-1.28a2.07,2.07,0,0,1,2.17,0L18,34.8l1.93-1.19a2.07,2.07,0,0,1,2.17,0L24,34.8l1.93-1.19a2.07,2.07,0,0,1,2.17,0l2,1.28,2.11-.64.67-1.91-1.35-1.83a1.93,1.93,0,0,1,0-2.2l1.22-1.72-1.22-1.72a1.93,1.93,0,0,1,0-2.2L32.77,21l-1.22-1.72a1.93,1.93,0,0,1,0-2.2l1.22-1.72-1.22-1.72a1.93,1.93,0,0,1,0-2.2l1.36-1.92-.69-1.84-2-.62L28.09,8.29a2.09,2.09,0,0,1-2.18,0L24,7.1,22.09,8.29a2.09,2.09,0,0,1-2.18,0L18,7.1,16.09,8.29a2.09,2.09,0,0,1-2.18,0L11.88,7l-2.11.65L9.1,9.57l1.35,1.82a1.93,1.93,0,0,1,0,2.2L9.23,15.31,10.45,17a1.93,1.93,0,0,1,0,2.2L9.23,21l1.22,1.72a1.93,1.93,0,0,1,0,2.2Zm-.42-2.76h0Z"/><path class="a" d="M29,31.35H13V10.55H29Zm-14-2H27V12.55H15Z"/><rect class="b" x="15" y="12.49" width="12" height="16.92"/></svg>