<?xml version="1.0" encoding="UTF-8"?>
<svg width="74px" height="20px" viewBox="0 0 74 20" version="1.1" xmlns="http://www.w3.org/2000/svg" xmlns:xlink="http://www.w3.org/1999/xlink">
    <!-- Generator: sketchtool 52.5 (67469) - http://www.bohemiancoding.com/sketch -->
    <title>5B456660-E091-46DD-837D-17A3846B86B7</title>
    <desc>Created with sketchtool.</desc>
    <defs>
        <linearGradient x1="1.16106622%" y1="75.1382988%" x2="97.386384%" y2="23.8763264%" id="linearGradient-1">
            <stop stop-color="#EB6608" offset="0%"></stop>
            <stop stop-color="#F9BA04" offset="100%"></stop>
        </linearGradient>
        <polygon id="path-2" points="0.0114780932 0.0191751663 7.17557119 0.0191751663 7.17557119 7.07651441 0.0114780932 7.07651441"></polygon>
    </defs>
    <g id="Charte" stroke="none" stroke-width="1" fill="none" fill-rule="evenodd">
        <g id="Chartes-&amp;-pictos" transform="translate(-18.000000, -950.000000)">
            <g id="logo_colissimo" transform="translate(18.000000, 950.000000)">
                <g id="Group-3" transform="translate(0.000000, 0.237176)" fill="url(#linearGradient-1)">
                    <path d="M7.99689684,0.0216214623 C7.89152132,0.0217558962 7.78625585,0.0442511792 7.7064099,0.0891521226 L0.404445666,4.14079009 L8.58456121,8.98877005 C8.66033563,9.0309375 8.71799725,9.13122524 8.71799725,9.22156486 L8.71795323,16.293934 C8.71795323,16.3827948 8.65553783,16.484875 8.57923521,16.5262358 L8.13896011,16.7751403 C8.10238239,16.7949917 8.05590096,16.8054776 8.00721871,16.8054776 L7.99881155,16.8054776 C7.9458817,16.8067099 7.8968033,16.796112 7.85831087,16.7751403 L7.41669326,16.526191 C7.34155708,16.4855248 7.28024209,16.3830637 7.28024209,16.293934 L7.28030811,9.98929481 C7.27639065,9.94313915 7.24318019,9.88678892 7.20682256,9.86559316 L2.2007599e-05,5.59455896 L-6.54055894e-10,13.960138 C-8.80336664e-05,14.1474269 0.129540577,14.3782948 0.288506189,14.4729139 L7.71085557,18.9295118 C7.789337,18.97625 7.89235763,18.9997535 7.99562036,19 L7.99922971,19 C8.1037249,18.9996863 8.20824209,18.9774375 8.28749381,18.9295342 L15.7109436,14.4729139 C15.869227,14.3772866 15.9985254,14.1476285 15.9983494,13.960138 L15.9983494,5.59458137 L11.1141458,8.49161085 C11.0387675,8.53635495 10.9207373,8.53279245 10.8471417,8.48654717 L10.4142613,8.22455778 C10.3790481,8.20235377 10.346696,8.16675118 10.3222228,8.12395637 C10.3207923,8.12149175 10.3193838,8.11895991 10.3179752,8.11647288 C10.2903329,8.07060849 10.274575,8.02210024 10.2730124,7.97766981 L10.2619422,7.46388561 C10.258707,7.37733255 10.314762,7.27177948 10.3903824,7.22692335 L15.5938817,4.14070047 L8.29193948,0.0891521226 C8.21152132,0.0436910377 8.10544154,0.0218231132 7.99938377,0.0216214623 L7.99689684,0.0216214623 Z" id="Fill-1"></path>
                </g>
                <g id="Group-27" transform="translate(21.000000, 4.237176)">
                    <path d="M5.5528347,3.42334812 C4.97044106,3.07518847 4.38748597,2.92383592 3.60468047,2.92383592 C1.51904064,2.92383592 0.000208855932,4.33197339 0.000208855932,6.4675388 C0.000208855932,8.58789357 1.41196267,9.98117517 3.62035589,9.98117517 C4.32581733,9.98117517 5.00048936,9.84461197 5.61457072,9.48121951 L5.61457072,7.76993348 C5.09288004,8.16405765 4.52573513,8.3759867 3.88122369,8.3759867 C2.63880038,8.3759867 1.85597242,7.58798226 1.85597242,6.43707317 C1.85597242,5.22549889 2.66952242,4.52955654 3.80471055,4.52955654 C4.43338936,4.52955654 4.98582453,4.69631929 5.5528347,5.14988914 L5.5528347,3.42334812 Z" id="Fill-4" fill="#3C3C3B"></path>
                    <path d="M16.8248208,8.27973171 L16.8171403,8.2794878 C16.1452979,8.2233459 15.7974517,7.83868958 15.7974517,7.1479357 L15.7974517,0.00651662971 L13.9604628,0.00651662971 L13.9604628,7.26844568 C13.9604628,9.24831264 15.0836136,9.89696009 16.8248208,9.90556319 L16.8248208,8.27973171 Z" id="Fill-6" fill="#3C3C3B"></path>
                    <path d="M9.67071686,8.40644789 C8.6733961,8.40644789 7.95282068,7.66345455 7.95282068,6.45199113 C7.95282068,5.24103769 8.6733961,4.49888692 9.67071686,4.49888692 C10.6676558,4.49888692 11.3886804,5.24103769 11.3886804,6.45199113 C11.3886804,7.66345455 10.6676558,8.40644789 9.67071686,8.40644789 M9.67071686,2.92383149 C7.63021686,2.92383149 6.09615881,4.34709091 6.09615881,6.45199113 C6.09615881,8.5571796 7.63021686,9.98117073 9.67071686,9.98117073 C11.7103859,9.98117073 13.2599397,8.5571796 13.2599397,6.45199113 C13.2599397,4.34709091 11.7103859,2.92383149 9.67071686,2.92383149" id="Fill-8" fill="#3C3C3B"></path>
                    <path d="M20.660305,9.36020843 C21.2120216,9.70805765 22.0557322,9.90557428 22.8835652,9.90557428 C24.4791572,9.90557428 25.5989618,9.23921064 25.5989618,7.76992018 C25.5989618,6.5588337 25.000758,5.89224834 23.2367788,5.57360089 C22.5920877,5.4221153 22.3472097,5.241051 22.3472097,4.89242572 C22.3472097,4.57431042 22.6079652,4.31743681 23.2217995,4.31743681 C23.9267894,4.31743681 24.5244767,4.54464302 25.1690555,4.96843459 L25.1690555,3.34836807 C24.5709864,3.01475388 23.9727826,2.84841242 23.1596593,2.84841242 C21.6876741,2.84841242 20.5524635,3.52923282 20.5524635,5.01382262 C20.5524635,6.24096231 21.1966606,6.8461286 22.7453834,7.11925499 C23.4976466,7.27096231 23.7889894,7.43723725 23.7889894,7.84603991 C23.7889894,8.26987583 23.4058173,8.43654989 22.8382233,8.43654989 C22.1627877,8.43654989 21.3045021,8.14887805 20.660305,7.67976497 L20.660305,9.36020843 Z" id="Fill-10" fill="#3C3C3B"></path>
                    <polygon id="Fill-12" fill="#3C3C3B" points="17.6768497 9.82995344 19.5220582 9.82995344 19.5220582 9.25084035 19.5220582 3.05926608 17.6768497 3.05926608"></polygon>
                    <path d="M18.599445,0.357461197 C18.0898814,0.357461197 17.6768407,0.765110865 17.6768407,1.26817073 C17.6768407,1.77143016 18.0898814,2.17894678 18.599445,2.17894678 C19.1091433,2.17894678 19.5220492,1.77143016 19.5220492,1.26817073 C19.5220492,0.765110865 19.1091433,0.357461197 18.599445,0.357461197" id="Fill-14" fill="#3C3C3B"></path>
                    <g id="Group-18" transform="translate(45.813559, 2.904656)">
                        <mask id="mask-3" fill="white">
                            <use xlink:href="#path-2"></use>
                        </mask>
                        <g id="Clip-17"></g>
                        <path d="M3.58610352,5.50179157 C2.58896242,5.50179157 1.86834208,4.75879823 1.86834208,3.54733481 C1.86834208,2.33638137 2.58896242,1.5942306 3.58610352,1.5942306 C4.58310987,1.5942306 5.30426919,2.33638137 5.30426919,3.54733481 C5.30426919,4.75879823 4.58310987,5.50179157 3.58610352,5.50179157 M3.58610352,0.0191751663 C1.54585055,0.0191751663 0.0114780932,1.44243459 0.0114780932,3.54733481 C0.0114780932,5.65252328 1.54585055,7.07651441 3.58610352,7.07651441 C5.6258175,7.07651441 7.17557343,5.65252328 7.17557343,3.54733481 C7.17557343,1.44243459 5.6258175,0.0191751663 3.58610352,0.0191751663" id="Fill-16" fill="#3C3C3B" mask="url(#mask-3)"></path>
                    </g>
                    <path d="M26.2168992,9.36020843 C26.7685932,9.70805765 27.6123263,9.90557428 28.4401369,9.90557428 C30.0358636,9.90557428 31.1555559,9.23921064 31.1555559,7.76992018 C31.1555559,6.5588337 30.5573521,5.89224834 28.7933729,5.57360089 C28.1486818,5.4221153 27.9035568,5.241051 27.9035568,4.89242572 C27.9035568,4.57431042 28.1646716,4.31743681 28.7783712,4.31743681 C29.4833835,4.31743681 30.0810708,4.54464302 30.7255148,4.96843459 L30.7255148,3.34836807 C30.1275581,3.01475388 29.5292195,2.84841242 28.7162534,2.84841242 C27.2442458,2.84841242 26.1090576,3.52923282 26.1090576,5.01382262 C26.1090576,6.24096231 26.7531199,6.8461286 28.3018428,7.11925499 C29.0542407,7.27096231 29.3454712,7.43723725 29.3454712,7.84603991 C29.3454712,8.26987583 28.9624114,8.43654989 28.3946826,8.43654989 C27.7191347,8.43654989 26.8609614,8.14887805 26.2168992,7.67976497 L26.2168992,9.36020843 Z" id="Fill-19" fill="#3C3C3B"></path>
                    <polygon id="Fill-21" fill="#3C3C3B" points="31.9467651 9.82995344 33.7918388 9.82995344 33.7918388 9.25084035 33.7918388 3.05926608 31.9467651 3.05926608"></polygon>
                    <path d="M32.8692256,0.357461197 C32.3595273,0.357461197 31.9467561,0.765110865 31.9467561,1.26817073 C31.9467561,1.77143016 32.3595273,2.17894678 32.8692256,2.17894678 C33.3788116,2.17894678 33.7918298,1.77143016 33.7918298,1.26817073 C33.7918298,0.765110865 33.3788116,0.357461197 32.8692256,0.357461197" id="Fill-23" fill="#3C3C3B"></path>
                    <path d="M43.2156678,5.60774058 C43.2156678,4.89623282 42.8938275,4.53328381 42.1733194,4.53328381 C41.6829572,4.53328381 41.1924601,4.63904878 40.8858686,4.79046785 C40.9472004,4.9418204 41.0237809,5.16878271 41.0237809,5.48658758 L41.0237809,9.82995787 L39.1690055,9.82995787 L39.1690055,5.60774058 C39.1690055,4.89623282 38.8319165,4.53328381 38.1267694,4.53328381 C37.6822656,4.53328381 37.3450644,4.59372727 36.9769839,4.69966962 L36.9769839,9.82995787 L35.1378165,9.82995787 L35.1378165,3.51920399 C36.0879538,3.15592239 37.2071296,2.92900443 38.2187334,2.92900443 C39.0159567,2.92900443 39.6902245,3.12563415 40.1041411,3.45876053 C40.7172118,3.18625499 41.4224711,2.92900443 42.4185792,2.92900443 C44.0435008,2.92900443 45.0704656,3.54947007 45.0704656,5.53186475 L45.0704656,9.82995787 L43.2156678,9.82995787 L43.2156678,5.60774058 Z" id="Fill-25" fill="#3C3C3B"></path>
                </g>
            </g>
        </g>
    </g>
</svg>