<?xml version="1.0" encoding="UTF-8"?>
<svg width="92px" height="20px" viewBox="0 0 92 20" version="1.1" xmlns="http://www.w3.org/2000/svg" xmlns:xlink="http://www.w3.org/1999/xlink">
    <!-- Generator: sketchtool 52.5 (67469) - http://www.bohemiancoding.com/sketch -->
    <title>65A22DD4-8680-47D4-9D29-21D64F0E69D1</title>
    <desc>Created with sketchtool.</desc>
    <defs>
        <polygon id="path-1" points="0.0182415749 0.00403158813 69.9902603 0.00403158813 69.9902603 12.9828867 0.0182415749 12.9828867"></polygon>
        <linearGradient x1="0.484292762%" y1="84.8657028%" x2="51.1167129%" y2="48.4045334%" id="linearGradient-3">
            <stop stop-color="#009ADF" offset="0%"></stop>
            <stop stop-color="#0060A1" offset="100%"></stop>
        </linearGradient>
    </defs>
    <g id="Charte" stroke="none" stroke-width="1" fill="none" fill-rule="evenodd">
        <g id="Chartes-&amp;-pictos" transform="translate(-119.000000, -950.000000)">
            <g id="logo-chronopost" transform="translate(118.538462, 950.000000)">
                <g id="Group-3" transform="translate(22.461538, 4.000000)">
                    <mask id="mask-2" fill="white">
                        <use xlink:href="#path-1"></use>
                    </mask>
                    <g id="Clip-2"></g>
                    <path d="M56.5898498,6.67550454 C56.5898498,7.92754293 55.8318085,8.69517818 54.7848215,8.69517818 C53.7378111,8.69517818 52.9805639,7.92754293 52.9805639,6.67550454 C52.9805639,5.42405602 53.7378111,4.65694258 54.7848215,4.65694258 C55.8318085,4.65694258 56.5898498,5.42405602 56.5898498,6.67550454 Z M51.0306773,6.67550454 C51.0306773,8.85086056 52.6422656,10.3226058 54.7848215,10.3226058 C56.9278912,10.3226058 58.5554087,8.85086056 58.5554087,6.67550454 C58.5554087,4.50014852 56.9278912,3.02940157 54.7848215,3.02940157 C52.6422656,3.02940157 51.0306773,4.50014852 51.0306773,6.67550454 Z M59.2764998,9.68097749 C59.8560027,10.0404173 60.7421788,10.2444923 61.6119586,10.2444923 C63.2880113,10.2444923 64.4642309,9.55596876 64.4642309,8.0374644 C64.4642309,6.78590244 63.8359359,6.09687976 61.9828629,5.7677733 C61.3057524,5.61109267 61.0483851,5.42405602 61.0483851,5.06366335 C61.0483851,4.73505602 61.3224525,4.46942949 61.9671905,4.46942949 C62.7077611,4.46942949 63.3355422,4.70422356 64.012676,5.14223054 L64.012676,3.46790768 C63.3843343,3.12321483 62.7560627,2.95128813 61.9019553,2.95128813 C60.3556256,2.95128813 59.1632199,3.65494433 59.1632199,5.1891712 C59.1632199,6.45729511 59.8398165,7.08281518 61.4665632,7.36502635 C62.2569536,7.52170698 62.5629029,7.69363368 62.5629029,8.11605428 C62.5629029,8.55406126 62.1603737,8.72635096 61.5641942,8.72635096 C60.8547114,8.72635096 59.9530731,8.42907522 59.2764998,7.94412757 L59.2764998,9.68097749 Z M17.6008775,3.02940157 C15.7323891,3.02940157 14.5233066,3.70231606 14.5233066,5.78335969 L14.5233066,10.1664243 L16.4729596,10.1664243 L16.4729596,5.90936667 C16.4729596,5.12616771 16.9075809,4.71946963 17.7457591,4.71946963 C18.2132666,4.71946963 18.6961662,4.77950105 19.0989523,4.9050089 L19.0989523,3.15438761 C18.5826293,3.07337016 18.0678946,3.02940157 17.6008775,3.02940157 Z M40.2870671,6.67550454 C40.2870671,7.92754293 39.5295629,8.69517818 38.4820621,8.69517818 C37.4352853,8.69517818 36.6778045,7.92754293 36.6778045,6.67550454 C36.6778045,5.42405602 37.4352853,4.65694258 38.4820621,4.65694258 C39.5295629,4.65694258 40.2870671,5.42405602 40.2870671,6.67550454 Z M34.7278946,6.67550454 C34.7278946,8.85086056 36.3394828,10.3226058 38.4820621,10.3226058 C40.625342,10.3226058 42.252626,8.85086056 42.252626,6.67550454 C42.252626,4.50014852 40.625342,3.02940157 38.4820621,3.02940157 C36.3394828,3.02940157 34.7278946,4.50014852 34.7278946,6.67550454 Z M27.413023,10.1664243 L29.3465132,10.1664243 L29.3465132,4.92256911 C29.7495095,4.79756038 30.2332032,4.71946963 30.6996597,4.71946963 C31.5380948,4.71946963 31.9729963,5.12616771 31.9729963,5.90936667 L31.9729963,10.1664243 L33.9228595,10.1664243 L33.9228595,5.78335969 C33.9228595,3.70231606 32.714034,3.02940157 30.8448215,3.02940157 C29.7662095,3.02940157 28.4279413,3.26383264 27.413023,3.63983438 L27.413023,10.1664243 Z M24.5455923,6.67550454 C24.5455923,7.92754293 23.7880881,8.69517818 22.7408208,8.69517818 C21.69332,8.69517818 20.936353,7.92754293 20.936353,6.67550454 C20.936353,5.42405602 21.69332,4.65694258 22.7408208,4.65694258 C23.7880881,4.65694258 24.5455923,5.42405602 24.5455923,6.67550454 Z M18.9859526,6.67550454 C18.9859526,8.85086056 20.5975409,10.3226058 22.7408208,10.3226058 C24.8834001,10.3226058 26.5111512,8.85086056 26.5111512,6.67550454 C26.5111512,4.50014852 24.8834001,3.02940157 22.7408208,3.02940157 C20.5975409,3.02940157 18.9859526,4.50014852 18.9859526,6.67550454 Z M6.89846847,10.1664243 L8.83193527,10.1664243 L8.83193527,4.92256911 C9.2185352,4.78247312 9.71762095,4.71946963 10.1851285,4.71946963 C11.0230497,4.71946963 11.4579279,5.12616771 11.4579279,5.90936667 L11.4579279,10.1664243 L13.4077911,10.1664243 L13.4077911,5.78335969 C13.4077911,3.71792513 12.16664,3.02940157 10.6043343,3.02940157 C9.83118118,3.02940157 9.17023357,3.20132827 8.83193527,3.32631431 L8.83193527,0.00403158813 L6.89846847,0.00403158813 L6.89846847,10.1664243 Z M5.85094428,3.54552199 C5.23911578,3.18569651 4.62672673,3.02940157 3.80447781,3.02940157 C1.61364364,3.02940157 0.0182415749,4.48456213 0.0182415749,6.69159005 C0.0182415749,8.88269127 1.50115782,10.3226058 3.82092092,10.3226058 C4.56200534,10.3226058 5.27069403,10.1815115 5.91568902,9.8060089 L5.91568902,8.0374644 C5.36778779,8.44466161 4.77209877,8.6638466 4.09501168,8.6638466 C2.7898632,8.6638466 1.96763764,7.84947487 1.96763764,6.65991815 C1.96763764,5.40785707 2.82223557,4.68863717 4.01461795,4.68863717 C4.67500501,4.68863717 5.25527861,4.861063 5.85094428,5.32976632 L5.85094428,3.54552199 Z M68.6451952,8.66631955 C67.8125526,8.66631955 67.3804538,8.26204904 67.3804538,7.48411361 L67.3804538,4.74340506 L69.9073674,4.74340506 L69.9073674,3.18816946 L67.3804538,3.18816946 L67.3804538,0.601192147 L65.4424558,0.601192147 L65.4424558,7.60914503 C65.4424558,9.67755166 66.6434334,10.3465412 68.5012946,10.3465412 C68.9647381,10.3465412 69.4774875,10.3020962 69.9902603,10.222508 L69.9902603,8.48270873 C69.5902769,8.60724101 69.1096196,8.66631955 68.6451952,8.66631955 Z M45.0335903,12.9828867 L43.0811812,12.9828867 L43.0811812,3.59538935 C43.855619,3.28186928 45.0335903,3.01526719 46.2280047,3.01526719 C48.5834334,3.01526719 50.1811245,4.31608394 50.1811245,6.52569825 C50.1811245,8.95488325 48.6805272,10.3181817 46.1797264,10.3181817 C46.1465832,10.3181817 46.1142342,10.3172061 46.0821188,10.3172061 L46.0821188,8.67122007 C47.3000534,8.65513455 48.2120621,8.01107871 48.2120621,6.58817993 C48.2120621,5.38206126 47.3890424,4.70719564 46.1956323,4.70719564 C45.8083083,4.70719564 45.3567301,4.75459005 45.0335903,4.88009791 L45.0335903,12.9828867 Z" id="Fill-1" fill="#414042" mask="url(#mask-2)"></path>
                </g>
                <g id="Group-6" transform="translate(0.461538, 0.000000)" fill="url(#linearGradient-3)">
                    <path d="M8.49566849,0.0142655699 C8.38358493,0.0143830787 8.2716411,0.0380728555 8.18673425,0.0853819036 L0.429657535,4.3520564 L9.11963836,9.4573913 C9.20012055,9.50183314 9.26136712,9.60740306 9.26136712,9.70256169 L9.26132055,17.1503173 C9.26132055,17.2438778 9.19504384,17.3513278 9.11395616,17.3949236 L8.64624658,17.6570388 C8.60740274,17.6779083 8.5579863,17.6890247 8.50631096,17.6890247 L8.49734521,17.6890247 C8.44112877,17.6902703 8.38898767,17.6791304 8.34811781,17.6570388 L7.8789411,17.3949001 C7.79918082,17.3520564 7.73404521,17.2441833 7.73404521,17.1503173 L7.73411507,10.5110223 C7.72992329,10.4623972 7.69464247,10.4030552 7.65603151,10.3807521 L2.32882636e-05,5.88305523 L5.92325864e-10,14.6927145 C-9.31500926e-05,14.8898237 0.137653425,15.132973 0.306489042,15.2326439 L8.19148493,19.9257344 C8.27480822,19.9749941 8.38416712,19.999718 8.49380548,20 L8.49781096,20 C8.60884658,19.999671 8.7198589,19.9761927 8.80402055,19.9257814 L16.6901808,15.2326439 C16.8583178,15.1319154 16.9956918,14.8900588 16.9955055,14.6927145 L16.9955055,5.88307873 L11.8068726,8.93384254 C11.7267863,8.98096357 11.6014055,8.97722679 11.5232521,8.92848414 L11.0633671,8.65257344 C11.0259671,8.62923619 10.9915945,8.59172738 10.9655822,8.546651 C10.9640918,8.54408931 10.9625548,8.54141011 10.9610644,8.53880141 C10.9317219,8.49045828 10.9149548,8.43943596 10.9133014,8.39262045 L10.9015644,7.85156287 C10.8980945,7.76039953 10.9576644,7.64925969 11.0380068,7.60204465 L16.5658247,4.3519859 L8.80877123,0.0853819036 C8.72332877,0.0375088132 8.61066301,0.0144770858 8.49797397,0.0142655699 L8.49566849,0.0142655699 Z" id="Fill-4"></path>
                </g>
            </g>
        </g>
    </g>
</svg>