<svg xmlns="http://www.w3.org/2000/svg" viewBox="0 0 60 60"><defs><style>.a{fill:none;}.a,.b{stroke:#4f4f4f;stroke-linecap:round;stroke-linejoin:round;stroke-width:2px;}.b{fill:#ffcb05;fill-rule:evenodd;}</style></defs><path class="a" d="M22.35,44.86H12.68a6.45,6.45,0,0,1-6.45-6.45V12.62a6.45,6.45,0,0,1,6.45-6.45h25.8a6.45,6.45,0,0,1,6.45,6.45v9.67"/><path class="a" d="M19.13,6.17V44.86"/><path class="a" d="M32,6.17V25.52"/><path class="a" d="M44.93,19.07H6.23"/><path class="a" d="M25.58,32H6.23"/><path class="b" d="M28.8,41.64a12.9,12.9,0,1,0,12.9-12.9A12.91,12.91,0,0,0,28.8,41.64Z"/><path class="a" d="M43.44,47.72a5.42,5.42,0,1,1,0-10.83"/><path class="a" d="M35.32,42.3h8.12"/></svg>