<svg width="100" height="77" viewBox="0 0 100 77" fill="none" xmlns="http://www.w3.org/2000/svg">
<path d="M34.0125 76.724C22.2573 76.197 9.54169 71.4709 3.42743 60.674C-2.30678 50.4764 0.635607 37.6148 7.0894 28.5116C17.3261 13.7772 34.1181 4.56339 51.4204 1.34868C64.7003 -1.03 79.6534 0.266732 90.5025 9.05864C97.8652 14.9087 101.191 25.0068 99.2181 34.2018C96.306 48.4036 85.3107 59.4629 73.3222 66.6056C61.5125 73.5606 47.7091 77.3762 34.0125 76.724Z" fill="url(#paint0_linear_6411_20362)"/>
<path d="M28.8927 24.9306C31.1006 25.7312 38.2846 28.2838 42.2916 31.033C42.4239 31.1237 42.6778 31.3058 42.6778 31.3058L72.5298 30.8335C72.5818 30.7623 73.6804 28.8075 74.3321 27.5469C75.0453 26.1646 75.0936 24.9802 74.2854 24.1937C73.4068 23.34 71.9845 23.2043 69.1122 23.2043H29.052C28.7325 23.2043 27.9202 23.1488 27.7892 23.8132C27.7485 24.0359 27.8141 24.265 27.9661 24.4313C28.2349 24.6645 28.5513 24.835 28.8927 24.9306Z" fill="#003DA5"/>
<path d="M88.9233 32.5055C88.2606 32.5241 44.5514 33.1993 43.8735 33.2262C43.5097 33.2407 43.4036 33.3247 43.4016 33.7209C43.3848 36.9259 39.1861 40.0063 33.4726 42.7601C27.4458 45.6654 19.8796 48.5558 15.9472 50.0192C15.01 50.3682 13.3297 50.9677 12.7882 51.2463C12.356 51.4682 12.0566 51.8118 12.1938 52.2104C12.331 52.6091 12.7673 52.8132 14.2636 52.412C14.9325 52.2324 15.6854 52.0469 16.5145 51.8287C24.0643 49.8416 37.8925 46.3439 51.3602 42.9439C65.3059 39.4251 79.0546 36.3799 89.1335 34.5439C89.9253 34.3998 90.5786 33.9676 90.545 33.3587C90.5139 32.7899 89.8593 32.479 88.9233 32.5055Z" fill="#003DA5"/>
<path d="M52.9916 52.2571C52.9941 52.2571 54.9578 52.3097 56.3915 51.4412C58.7001 50.0415 61.7351 47.5001 66.0349 41.3906L19.9561 52.833L52.9916 52.2571Z" fill="#003DA5"/>
<defs>
<linearGradient id="paint0_linear_6411_20362" x1="7.24096" y1="32.3979" x2="70.2796" y2="65.1114" gradientUnits="userSpaceOnUse">
<stop stop-color="#F0E63C"/>
<stop offset="1" stop-color="#E6AF32"/>
</linearGradient>
</defs>
</svg>
