<svg xmlns="http://www.w3.org/2000/svg" viewBox="0 0 42 42"><defs><style>.a{fill:#ffc905;}.b{fill:#3c3c3c;}</style></defs><polygon class="a" points="20.91 5.76 11.33 8.68 11.7 10.73 12.66 12.16 21.24 17.93 27.52 13.47 29.71 12.22 31.44 10.03 30.12 8.71 20.91 5.76"/><path class="b" d="M21.38,27.46A9.52,9.52,0,0,1,13,13.31a1,1,0,1,1,1.74,1A7.6,7.6,0,1,0,28,14.15a1,1,0,0,1,.36-1.37,1,1,0,0,1,1.36.36A9.43,9.43,0,0,1,31,17.92,9.58,9.58,0,0,1,21.38,27.46Z"/><path class="b" d="M28.27,14.47H14.5A3,3,0,0,1,12,12.69l-1.76-2.33V10a2.33,2.33,0,0,1,2.15-2.32l8-2.3a3,3,0,0,1,2.11,0l7.94,2.28A2.33,2.33,0,0,1,32.58,10v.34l-1.89,2.4A2.71,2.71,0,0,1,28.27,14.47Zm-16-4.66,1.44,1.92c.2.44.53.74.79.74H28.27c.16,0,.31,0,.7-.72l.09-.15,1.43-1.8a.31.31,0,0,0-.22-.09l-.28,0L21.85,7.33a1.2,1.2,0,0,0-.85,0L12.5,9.71A.33.33,0,0,0,12.27,9.81Z"/><path class="b" d="M21.34,18.93a3,3,0,0,1-1.11-.2l-.19-.1L13,14a1,1,0,0,1,1.11-1.67L21,16.89a1.06,1.06,0,0,0,.61,0l6.89-4.58a1,1,0,0,1,1.38.28A1,1,0,0,1,29.64,14l-7.2,4.75A3,3,0,0,1,21.34,18.93Z"/><path class="b" d="M35.84,37a1,1,0,0,1-1-1V34.51a4.14,4.14,0,0,0-4.14-4.14H11.58a4.14,4.14,0,0,0-4.15,4.14V36a1,1,0,0,1-2,0V34.51a6.15,6.15,0,0,1,6.15-6.14H30.7a6.15,6.15,0,0,1,6.14,6.14V36A1,1,0,0,1,35.84,37Z"/><path class="b" d="M21.14,35.51a1,1,0,0,1-.78-.37L16.22,30a1,1,0,0,1,1.56-1.25l3.35,4.16L24.21,29a1,1,0,1,1,1.58,1.24l-3.87,4.93a1,1,0,0,1-.78.38Z"/><path class="b" d="M31.88,27.46H29.33a1,1,0,0,1,0-2h2.55a1,1,0,1,1,0,2Z"/><path class="b" d="M13.34,27.46H10.79a1,1,0,0,1,0-2h2.55a1,1,0,0,1,0,2Z"/></svg>