<svg xmlns="http://www.w3.org/2000/svg" viewBox="0 0 42 42"><defs><style>.a{fill:#3c3c3c;}.b{fill:#ffc905;fill-rule:evenodd;}</style></defs><path class="a" d="M6,17.48a1,1,0,0,1-.57-1.82l15-10.43a1,1,0,0,1,1.14,0L36.46,15.66a1,1,0,1,1-1.14,1.64L21,7.28,6.58,17.3A1,1,0,0,1,6,17.48Z"/><path class="a" d="M7.93,37a1,1,0,0,1-1-1V15.43a1,1,0,0,1,2,0V36A1,1,0,0,1,7.93,37Z"/><path class="a" d="M34.06,23a1,1,0,0,1-1-1V15.68a1,1,0,0,1,2,0V22A1,1,0,0,1,34.06,23Z"/><path class="b" d="M24.07,26.05l11.55.64-1.71,8.83H21.07Z"/><path class="a" d="M22.08,37a2.41,2.41,0,0,1-2.17-3.34l1.86-5.92A3.85,3.85,0,0,1,25.11,25h9.32a2.51,2.51,0,0,1,2.39,3.24l-1.28,5.92v0A3.62,3.62,0,0,1,32.19,37H22.08ZM34.43,27H25.2a1.84,1.84,0,0,0-1.52,1.29l-1.88,6a.61.61,0,0,1-.05.12.44.44,0,0,0,0,.4.42.42,0,0,0,.36.17h10a1.6,1.6,0,0,0,1.44-1.21l1.28-6,0-.1a.5.5,0,0,0-.06-.46A.52.52,0,0,0,34.43,27ZM34.57,34h0Z"/><path class="a" d="M28.17,33a1,1,0,0,1-.76-.35l-4.54-5.3A1,1,0,0,1,24.39,26l3.95,4.61L35,25.88a1,1,0,0,1,1.16,1.63l-7.45,5.3A1,1,0,0,1,28.17,33Z"/><path class="a" d="M14,37H12a1,1,0,0,1,0-2h2a1,1,0,0,1,0,2Z"/><path class="a" d="M16,33H12a1,1,0,1,1,0-2h4a1,1,0,0,1,0,2Z"/><path class="a" d="M19,29H12a1,1,0,1,1,0-2h7a1,1,0,0,1,0,2Z"/></svg>