<svg xmlns="http://www.w3.org/2000/svg" viewBox="0 0 42 42"><defs><style>.a{fill:#3c3c3c;}.b{fill:#ffc905;fill-rule:evenodd;}</style></defs><path class="a" d="M16.07,30.88H10.14A5,5,0,0,1,5.2,25.93V10.15A5,5,0,0,1,10.14,5.2H25.93a5,5,0,0,1,4.95,5v5.92a1,1,0,0,1-2,0V10.15A3,3,0,0,0,25.93,7.2H10.14a3,3,0,0,0-2.94,3V25.93a3,3,0,0,0,2.94,2.95h5.93a1,1,0,0,1,0,2Z"/><path class="a" d="M14.09,30.88a1,1,0,0,1-1-1V6.2a1,1,0,1,1,2,0V29.88A1,1,0,0,1,14.09,30.88Z"/><path class="a" d="M22,19a1,1,0,0,1-1-1V6.2a1,1,0,1,1,2,0V18A1,1,0,0,1,22,19Z"/><path class="a" d="M29.88,15.09H6.2a1,1,0,1,1,0-2H29.88a1,1,0,0,1,0,2Z"/><path class="a" d="M18,23H6.2a1,1,0,1,1,0-2H18a1,1,0,0,1,0,2Z"/><path class="b" d="M20,27.91a7.9,7.9,0,1,0,7.9-7.9A7.9,7.9,0,0,0,20,27.91Z"/><path class="a" d="M27.91,36.8a8.9,8.9,0,1,1,8.89-8.89A8.9,8.9,0,0,1,27.91,36.8Zm0-15.79a6.9,6.9,0,1,0,6.89,6.9A6.91,6.91,0,0,0,27.91,21Z"/><path class="a" d="M29,32.63A4.32,4.32,0,0,1,29,24a1,1,0,0,1,0,2,2.32,2.32,0,0,0,0,4.63,1,1,0,0,1,0,2Z"/><path class="a" d="M29,29.31H24a1,1,0,0,1,0-2h5a1,1,0,0,1,0,2Z"/></svg>