<svg xmlns="http://www.w3.org/2000/svg" viewBox="0 0 42 42"><defs><style>.a{fill:#3c3c3c;}.b{fill:#ffc905;fill-rule:evenodd;}</style></defs><path class="a" d="M16,32.63a3,3,0,0,1-1.11-.21L7,29.24a3,3,0,0,1-1.87-2.78v-19A2,2,0,0,1,7.82,5.55l7.84,3.14a1,1,0,0,0,.74,0L24.86,5.3a2.94,2.94,0,0,1,2.22,0l8,3.18a3,3,0,0,1,1.88,2.78V17a1,1,0,0,1-2,0V11.26a1,1,0,0,0-.63-.92L26.34,7.16a1,1,0,0,0-.74,0l-8.46,3.38a2.94,2.94,0,0,1-2.22,0L7.08,7.41V26.46a1,1,0,0,0,.62.92l8,3.18a1,1,0,0,0,.74,0L20.21,29A1,1,0,0,1,21,30.89l-3.82,1.53A3.08,3.08,0,0,1,16,32.63Z"/><path class="a" d="M16,32.63a1,1,0,0,1-1-1V9.76a1,1,0,0,1,2,0V31.63A1,1,0,0,1,16,32.63Z"/><path class="a" d="M26,17a1,1,0,0,1-1-1v-10a1,1,0,1,1,2,0V16A1,1,0,0,1,26,17Z"/><path class="b" d="M30,20.1a6,6,0,0,1,6,6c0,2.55-3.56,7.39-5.18,9.46a1,1,0,0,1-.78.38,1,1,0,0,1-.78-.38C27.55,33.46,24,28.62,24,26.07A6,6,0,0,1,30,20.1Z"/><path class="a" d="M30,36.92a2,2,0,0,1-1.57-.77C25.92,33,23,28.7,23,26.07a7,7,0,0,1,13.94,0c0,2.63-2.94,6.93-5.4,10.08A2,2,0,0,1,30,36.92ZM30,21.1a5,5,0,0,0-5,5c0,1.54,1.91,4.93,5,8.85,3.06-3.92,5-7.31,5-8.85A5,5,0,0,0,30,21.1Z"/><path class="a" d="M30.45,27.07a1,1,0,0,1-.91-.59,1,1,0,0,1-.59-.91,1,1,0,0,1,1-1,1.5,1.5,0,0,1,1.5,1.5A1,1,0,0,1,30.45,27.07Zm-.5-.5h0Z"/><path class="a" d="M29.45,27.07a1,1,0,0,1-1-1,1.5,1.5,0,0,1,1.5-1.5,1,1,0,0,1,1,1,1,1,0,0,1-.59.91A1,1,0,0,1,29.45,27.07Z"/><path class="a" d="M30,27.57a1.5,1.5,0,0,1-1.5-1.5,1,1,0,0,1,1-1,1,1,0,0,1,.91.59,1,1,0,0,1,.59.91A1,1,0,0,1,30,27.57Z"/><path class="a" d="M30,27.57a1,1,0,0,1-1-1,1,1,0,0,1,.59-.91,1,1,0,0,1,.91-.59,1,1,0,0,1,1,1A1.5,1.5,0,0,1,30,27.57Z"/></svg>