<svg xmlns="http://www.w3.org/2000/svg" viewBox="0 0 42 42"><defs><style>.a{fill:#3c3c3c;}.b{fill:#ffc905;fill-rule:evenodd;}</style></defs><path class="a" d="M5.77,26a.91.91,0,0,1-.39-.08l-4.68-2a1,1,0,1,1,.79-1.83l4.68,2a1,1,0,0,1,.52,1.32A1,1,0,0,1,5.77,26Z"/><path class="b" d="M23.38,20.11l12.48-5.8V28l-12.48,6.4Z"/><path class="a" d="M5.77,20a1,1,0,0,1-.44-.1l-4-2a1,1,0,0,1-.44-1.34,1,1,0,0,1,1.34-.45l4,2A1,1,0,0,1,5.77,20Z"/><path class="a" d="M5.77,14a1,1,0,0,1-.44-.11L2.65,12.53a1,1,0,1,1,.89-1.79l2.68,1.34A1,1,0,0,1,5.77,14Z"/><path class="a" d="M29.17,18a1,1,0,0,1-.45-.11L16.35,11.53a1,1,0,0,1-.43-1.35,1,1,0,0,1,1.34-.43L29.63,16.1A1,1,0,0,1,29.17,18Z"/><path class="a" d="M23.16,35.37a4.13,4.13,0,0,1-1.88-.45l-9.53-4.85a4.26,4.26,0,0,1-2.3-3.79V15.72a4.23,4.23,0,0,1,2.3-3.78l9.53-4.86h0a4.13,4.13,0,0,1,3.75,0l9.53,4.85a4.22,4.22,0,0,1,2.3,3.79V26.28a4.22,4.22,0,0,1-2.3,3.79L25,34.92A4.12,4.12,0,0,1,23.16,35.37Zm-1-26.51-9.53,4.85a2.25,2.25,0,0,0-1.21,2V26.28a2.26,2.26,0,0,0,1.22,2l9.52,4.85a2.12,2.12,0,0,0,1.93,0l9.53-4.85a2.25,2.25,0,0,0,1.21-2V15.72a2.25,2.25,0,0,0-1.21-2L24.12,8.86a2.12,2.12,0,0,0-1.93,0Z"/><path class="a" d="M23.16,21.33a1,1,0,0,1-.45-.1l-12-6a1,1,0,0,1-.44-1.34,1,1,0,0,1,1.34-.45l11.59,5.79,11.58-5.79a1,1,0,1,1,.9,1.79l-12,6A1,1,0,0,1,23.16,21.33Z"/><path class="a" d="M23.16,35.37a1,1,0,0,1-1-1v-14a1,1,0,0,1,2,0v14A1,1,0,0,1,23.16,35.37Z"/><path class="a" d="M29.17,22.67a1,1,0,0,1-1-1V17a1,1,0,0,1,2,0v4.68A1,1,0,0,1,29.17,22.67Z"/></svg>