<svg xmlns="http://www.w3.org/2000/svg" viewBox="0 0 42 42"><defs><style>.a{fill:#ffc905;fill-rule:evenodd;}.b{fill:#3c3c3c;}</style></defs><path class="a" d="M24.07,10.09l11.55.64-1.71,8.82H21.07Z"/><path class="b" d="M23.2,36.91H16.78a1,1,0,0,1-1-1.17l1.08-6a1,1,0,0,1,1-.82h4.28a1,1,0,0,1,1,.82l1.07,6a1,1,0,0,1-1,1.17Zm-5.23-2h4l-.71-4H18.69Z"/><path class="b" d="M26.42,36.92H13.57a1,1,0,0,1,0-2H26.42a1,1,0,0,1,0,2Z"/><path class="b" d="M33.91,25H6.07a1,1,0,0,1,0-2H33.91a1,1,0,0,1,0,2Z"/><path class="b" d="M29.93,31H10.05a5,5,0,0,1-5-5V10.06a5,5,0,0,1,5-5H29.93a5.58,5.58,0,0,1,2.23.53,1,1,0,1,1-.9,1.79,2.86,2.86,0,0,0-1.32-.32H10.05a3,3,0,0,0-3,3V26a3,3,0,0,0,3,3H29.93a3,3,0,0,0,3-3V24a1,1,0,0,1,2,0v2A5,5,0,0,1,29.93,31Z"/><path class="b" d="M22.08,21a2.41,2.41,0,0,1-2.17-3.34l1.86-5.92a3.85,3.85,0,0,1,3.34-2.68h9.32a2.51,2.51,0,0,1,2.39,3.25l-1.28,5.92v0A3.61,3.61,0,0,1,32.19,21H22.08Zm12.35-10H25.2a1.86,1.86,0,0,0-1.52,1.29l-1.88,6a.37.37,0,0,1-.05.11.44.44,0,0,0,0,.4.43.43,0,0,0,.36.18h10a1.6,1.6,0,0,0,1.44-1.22l1.28-5.95,0-.11a.48.48,0,0,0-.06-.45A.5.5,0,0,0,34.43,11.06Zm.14,7h0Z"/><path class="b" d="M28.17,17a1,1,0,0,1-.76-.35l-4.54-5.3a1,1,0,0,1,1.52-1.3l3.95,4.6L35,9.92a1,1,0,0,1,1.39.23,1,1,0,0,1-.23,1.4l-7.45,5.29A1,1,0,0,1,28.17,17Z"/><path class="b" d="M14,21H12a1,1,0,1,1,0-2h2a1,1,0,0,1,0,2Z"/><path class="b" d="M16,17H12a1,1,0,0,1,0-2h4a1,1,0,0,1,0,2Z"/><path class="b" d="M19,13.05H12a1,1,0,0,1,0-2h7a1,1,0,0,1,0,2Z"/></svg>