<?xml version="1.0" encoding="utf-8"?>
<!-- Generator: Adobe Illustrator 25.2.0, SVG Export Plug-In . SVG Version: 6.00 Build 0)  -->
<svg version="1.1" id="Calque_1" xmlns="http://www.w3.org/2000/svg" xmlns:xlink="http://www.w3.org/1999/xlink" x="0px" y="0px"
	 viewBox="0 0 60 60" style="enable-background:new 0 0 60 60;" xml:space="preserve">
<style type="text/css">
	.st0{fill:none;stroke:#3C3C3C;stroke-width:1.839;stroke-linecap:round;stroke-linejoin:round;}
	.st1{fill:#FFCB05;}
</style>
<g>
	<path class="st0" d="M52.6,47.7H7.4c-2.2,0-4.1-1.8-4.1-4.1v-2.2h53.3v2.2C56.6,45.9,54.8,47.7,52.6,47.7z"/>
	<path class="st0" d="M49,11.7H11c-2,0-3.7,1.6-3.7,3.7v26.1h45.4V15.4C52.7,13.3,51.1,11.7,49,11.7z"/>
	<rect x="10.4" y="15" class="st0" width="39.2" height="22.8"/>
	<rect x="23.6" y="41.5" class="st0" width="12.9" height="3.1"/>
	<g>
		<rect x="18.2" y="19.2" class="st1" width="23.8" height="15"/>
		<rect x="17.9" y="18.5" class="st0" width="24.2" height="15.7"/>
		<polyline class="st0" points="42.1,18.5 30,28.2 17.9,18.5 		"/>
		<line class="st0" x1="17.9" y1="34.1" x2="27.6" y2="26.6"/>
		<line class="st0" x1="42.1" y1="34.1" x2="32.9" y2="26.3"/>
	</g>
</g>
</svg>
