<svg xmlns="http://www.w3.org/2000/svg" viewBox="0 0 60 60"><defs><style>.a,.d{fill:none;}.b{fill:#393939;}.c{fill:#ffcb05;}.d{stroke:#3c3c3c;stroke-linecap:round;stroke-linejoin:round;stroke-width:2px;}</style></defs><path class="a" d="M48.39,47.7A4.06,4.06,0,0,1,46.61,46a2.58,2.58,0,0,1-.2-1,3.26,3.26,0,0,1,2-2.74c.78-.48,1-.7,1-1s-.26-.55-1-1a3.27,3.27,0,0,1-2-2.74,3.26,3.26,0,0,1,2-2.73c.78-.49,1-.7,1-1s-.26-.55-1-1a3.26,3.26,0,0,1-2-2.73,3.27,3.27,0,0,1,2-2.74c.78-.48,1-.7,1-1s-.26-.55-1-1a3.24,3.24,0,0,1-2-2.73,3.24,3.24,0,0,1,2-2.73c.78-.49,1-.71,1-1s-.26-.55-1-1a3.24,3.24,0,0,1-2-2.73,2.72,2.72,0,0,1,.11-.72,3.81,3.81,0,0,1,1.87-2l.15-.1a3.72,3.72,0,0,0,.57-.41,1,1,0,0,0,.18-.19,3.13,3.13,0,0,0,.2-.3,2.07,2.07,0,0,0,.32-.8,1.64,1.64,0,0,0,0-.38,2.32,2.32,0,0,0-2.32-2.32h-.11a2.29,2.29,0,0,0-1.92,1.2,3.56,3.56,0,0,1-2.25,1.58,2.67,2.67,0,0,1-.5,0A3.39,3.39,0,0,1,40,8.76c-.5-.64-.73-.88-1.2-.88s-.69.24-1.19.88a3.14,3.14,0,0,1-5.53,0c-.5-.64-.74-.88-1.2-.88s-.69.24-1.19.88a3.37,3.37,0,0,1-2.77,1.65,3.37,3.37,0,0,1-2.76-1.65c-.5-.64-.74-.88-1.2-.88s-.69.24-1.19.88A3.37,3.37,0,0,1,19,10.41a2.67,2.67,0,0,1-.5,0,3.6,3.6,0,0,1-2.26-1.61l-.09-.11a2.55,2.55,0,0,0-1.88-1.17l-.26,0A2.52,2.52,0,0,0,11.47,10a2.31,2.31,0,0,0,0,.46A2.51,2.51,0,0,0,13,12.31a3.67,3.67,0,0,1,1.88,2.1A2.94,2.94,0,0,1,15,15a2.53,2.53,0,0,1-.82,1.88,7.53,7.53,0,0,1-1.15.85c-.78.49-1,.71-1,1a.65.65,0,0,0,.25.48c.37.27.71.53.93.67a8.51,8.51,0,0,1,1,.71,2.6,2.6,0,0,1,1,2,3.25,3.25,0,0,1-2,2.73c-.78.49-1,.71-1,1s.26.55,1,1a3.25,3.25,0,0,1,2,2.73,3.27,3.27,0,0,1-2,2.73c-.78.49-1,.71-1,1s.26.55,1,1a3.27,3.27,0,0,1,2,2.73,3.27,3.27,0,0,1-2,2.74c-.78.48-1,.7-1,1s.17.46.62.77l0,0,.24.13a3.27,3.27,0,0,1,2,2.73,2.68,2.68,0,0,1-.14.84A4,4,0,0,1,13,47.91a4.82,4.82,0,0,0-.84.61,2.3,2.3,0,0,0-.68,1.26,2,2,0,0,0,0,.42,2.32,2.32,0,0,0,2.32,2.32l.23,0a2.32,2.32,0,0,0,1.43-.68,4.07,4.07,0,0,0,.58-.65,3.85,3.85,0,0,1,2-1.55,2.82,2.82,0,0,1,.74-.1,3.4,3.4,0,0,1,2.77,1.65c.5.65.74.89,1.2.89s.69-.24,1.19-.89a3.4,3.4,0,0,1,2.77-1.65,3.41,3.41,0,0,1,2.77,1.65c.5.65.73.89,1.19.89s.69-.24,1.19-.89a3.14,3.14,0,0,1,5.53,0c.51.65.74.89,1.2.89s.69-.24,1.19-.89a3.4,3.4,0,0,1,2.77-1.65,2.93,2.93,0,0,1,.81.12,3.94,3.94,0,0,1,2,1.53,2.52,2.52,0,0,0,2.33,1.36A2.23,2.23,0,0,0,50,50.18a2,2,0,0,0-.33-1.36A4.14,4.14,0,0,0,48.39,47.7Z"/><path class="a" d="M48.39,47.7A4.06,4.06,0,0,1,46.61,46a2.58,2.58,0,0,1-.2-1,3.26,3.26,0,0,1,2-2.74c.78-.48,1-.7,1-1s-.26-.55-1-1a3.27,3.27,0,0,1-2-2.74,3.26,3.26,0,0,1,2-2.73c.78-.49,1-.7,1-1s-.26-.55-1-1a3.26,3.26,0,0,1-2-2.73,3.27,3.27,0,0,1,2-2.74c.78-.48,1-.7,1-1s-.26-.55-1-1a3.24,3.24,0,0,1-2-2.73,3.24,3.24,0,0,1,2-2.73c.78-.49,1-.71,1-1s-.26-.55-1-1a3.24,3.24,0,0,1-2-2.73,2.72,2.72,0,0,1,.11-.72,3.81,3.81,0,0,1,1.87-2l.15-.1a3.72,3.72,0,0,0,.57-.41,1,1,0,0,0,.18-.19,3.13,3.13,0,0,0,.2-.3,2.07,2.07,0,0,0,.32-.8,1.64,1.64,0,0,0,0-.38,2.32,2.32,0,0,0-2.32-2.32h-.11a2.29,2.29,0,0,0-1.92,1.2,3.56,3.56,0,0,1-2.25,1.58,2.67,2.67,0,0,1-.5,0A3.39,3.39,0,0,1,40,8.76c-.5-.64-.73-.88-1.2-.88s-.69.24-1.19.88a3.14,3.14,0,0,1-5.53,0c-.5-.64-.74-.88-1.2-.88s-.69.24-1.19.88a3.37,3.37,0,0,1-2.77,1.65,3.37,3.37,0,0,1-2.76-1.65c-.5-.64-.74-.88-1.2-.88s-.69.24-1.19.88A3.37,3.37,0,0,1,19,10.41a2.67,2.67,0,0,1-.5,0,3.6,3.6,0,0,1-2.26-1.61l-.09-.11a2.55,2.55,0,0,0-1.88-1.17l-.26,0A2.52,2.52,0,0,0,11.47,10a2.31,2.31,0,0,0,0,.46A2.51,2.51,0,0,0,13,12.31a3.67,3.67,0,0,1,1.88,2.1A2.94,2.94,0,0,1,15,15a2.53,2.53,0,0,1-.82,1.88,7.53,7.53,0,0,1-1.15.85c-.78.49-1,.71-1,1a.65.65,0,0,0,.25.48c.37.27.71.53.93.67a8.51,8.51,0,0,1,1,.71,2.6,2.6,0,0,1,1,2,3.25,3.25,0,0,1-2,2.73c-.78.49-1,.71-1,1s.26.55,1,1a3.25,3.25,0,0,1,2,2.73,3.27,3.27,0,0,1-2,2.73c-.78.49-1,.71-1,1s.26.55,1,1a3.27,3.27,0,0,1,2,2.73,3.27,3.27,0,0,1-2,2.74c-.78.48-1,.7-1,1s.17.46.62.77l0,0,.24.13a3.27,3.27,0,0,1,2,2.73,2.68,2.68,0,0,1-.14.84A4,4,0,0,1,13,47.91a4.82,4.82,0,0,0-.84.61,2.3,2.3,0,0,0-.68,1.26,2,2,0,0,0,0,.42,2.32,2.32,0,0,0,2.32,2.32l.23,0a2.32,2.32,0,0,0,1.43-.68,4.07,4.07,0,0,0,.58-.65,3.85,3.85,0,0,1,2-1.55,2.82,2.82,0,0,1,.74-.1,3.4,3.4,0,0,1,2.77,1.65c.5.65.74.89,1.2.89s.69-.24,1.19-.89a3.4,3.4,0,0,1,2.77-1.65,3.41,3.41,0,0,1,2.77,1.65c.5.65.73.89,1.19.89s.69-.24,1.19-.89a3.14,3.14,0,0,1,5.53,0c.51.65.74.89,1.2.89s.69-.24,1.19-.89a3.4,3.4,0,0,1,2.77-1.65,2.93,2.93,0,0,1,.81.12,3.94,3.94,0,0,1,2,1.53,2.52,2.52,0,0,0,2.33,1.36A2.23,2.23,0,0,0,50,50.18a2,2,0,0,0-.33-1.36A4.14,4.14,0,0,0,48.39,47.7Z"/><path class="b" d="M51.85,48.82A4.78,4.78,0,0,0,49.45,46c-.78-.49-1-.71-1-1s.26-.56,1-1a3.28,3.28,0,0,0,2-2.74,3.28,3.28,0,0,0-2-2.73c-.78-.49-1-.71-1-1s.26-.55,1-1a3.28,3.28,0,0,0,2-2.74,3.28,3.28,0,0,0-2-2.73c-.78-.48-1-.7-1-1s.26-.55,1-1a3.28,3.28,0,0,0,2-2.73,3.26,3.26,0,0,0-2-2.73c-.78-.49-1-.71-1-1s.26-.55,1-1a3.26,3.26,0,0,0,2-2.73,3.26,3.26,0,0,0-2-2.73c-.78-.49-1-.71-1-1s.26-.55,1-1l.27-.17c.19-.13.39-.27.58-.42l.17-.14.19-.18a3.94,3.94,0,0,0,.36-.45,4.28,4.28,0,0,0,.65-1.34,4.16,4.16,0,0,0,.18-1.18,4.32,4.32,0,0,0-8-2.27c-.44.55-.68.78-1.11.78s-.69-.24-1.19-.88a3.41,3.41,0,0,0-2.78-1.65A3.37,3.37,0,0,0,36,7.53c-.5.64-.74.88-1.2.88s-.69-.24-1.19-.88a3.14,3.14,0,0,0-5.53,0c-.5.64-.74.88-1.2.88s-.69-.24-1.19-.88a3.37,3.37,0,0,0-2.77-1.65,3.37,3.37,0,0,0-2.76,1.65c-.5.64-.74.88-1.2.88s-.69-.24-1.19-.88l0,0A4.52,4.52,0,0,0,9.47,10a4.41,4.41,0,0,0,.88,2.62,3.44,3.44,0,0,0,.28.36l.08.09c.36.38,2.27,1.64,2.27,2s-.26.55-1,1a7,7,0,0,0-1,.75,2.56,2.56,0,0,0-.93,2,2.7,2.7,0,0,0,1.26,2.25,7.81,7.81,0,0,0,.86.59l.11.08c.68.43.92.65.92,1s-.25.55-1,1a3.24,3.24,0,0,0-2,2.73,3.24,3.24,0,0,0,2,2.73c.78.49,1,.71,1,1s-.25.55-1,1a3.27,3.27,0,0,0-2,2.74,3.26,3.26,0,0,0,2,2.73c.78.49,1,.7,1,1s-.25.55-1,1a3.26,3.26,0,0,0-2,2.73,3.26,3.26,0,0,0,2,2.74,7,7,0,0,1,.67.47.59.59,0,0,1,.22.45c0,.33-.26.55-1,1a6.25,6.25,0,0,0-1.19.89l-.07.06c-.07.07-.12.16-.19.23a4.3,4.3,0,0,0,6,6.12,5.53,5.53,0,0,0,1.07-1.11c.51-.65.74-.89,1.2-.89s.69.24,1.2.89a3.4,3.4,0,0,0,2.77,1.65,3.43,3.43,0,0,0,2.77-1.65c.5-.65.73-.89,1.19-.89s.69.24,1.19.89a3.14,3.14,0,0,0,5.53,0c.51-.65.74-.89,1.2-.89s.69.24,1.19.89a3.15,3.15,0,0,0,5.54,0c.5-.65.73-.89,1.19-.89s.69.24,1.19.89a4.71,4.71,0,0,0,3.91,2.12A4.36,4.36,0,0,0,52,50.18,4.08,4.08,0,0,0,51.85,48.82ZM50,50.18a2.23,2.23,0,0,1-2.36,2.35,2.52,2.52,0,0,1-2.33-1.36,3.94,3.94,0,0,0-2-1.53,2.93,2.93,0,0,0-.81-.12,3.4,3.4,0,0,0-2.77,1.65c-.5.65-.73.89-1.19.89s-.69-.24-1.2-.89a3.14,3.14,0,0,0-5.53,0c-.5.65-.73.89-1.19.89s-.69-.24-1.19-.89a3.41,3.41,0,0,0-2.77-1.65,3.4,3.4,0,0,0-2.77,1.65c-.5.65-.73.89-1.19.89s-.7-.24-1.2-.89a3.4,3.4,0,0,0-2.77-1.65,2.82,2.82,0,0,0-.74.1,3.85,3.85,0,0,0-2,1.55,4.07,4.07,0,0,1-.58.65A2.32,2.32,0,0,1,14,52.5l-.23,0a2.32,2.32,0,0,1-2.32-2.32,2,2,0,0,1,0-.42,2.3,2.3,0,0,1,.68-1.26,4.82,4.82,0,0,1,.84-.61A4,4,0,0,0,14.84,46a2.68,2.68,0,0,0,.14-.84,3.27,3.27,0,0,0-2-2.73l-.24-.13,0,0c-.45-.31-.62-.5-.62-.77s.26-.55,1-1a3.27,3.27,0,0,0,2-2.74,3.27,3.27,0,0,0-2-2.73c-.78-.48-1-.7-1-1s.26-.55,1-1a3.27,3.27,0,0,0,2-2.73,3.25,3.25,0,0,0-2-2.73c-.78-.49-1-.71-1-1s.26-.55,1-1a3.25,3.25,0,0,0,2-2.73,2.6,2.6,0,0,0-1-2,8.51,8.51,0,0,0-1-.71c-.22-.14-.56-.4-.93-.67A.65.65,0,0,1,12,18.8c0-.33.26-.55,1-1a7.53,7.53,0,0,0,1.15-.85A2.53,2.53,0,0,0,15,15a2.94,2.94,0,0,0-.07-.62A3.67,3.67,0,0,0,13,12.31a2.51,2.51,0,0,1-1.51-1.87,2.31,2.31,0,0,1,0-.46A2.52,2.52,0,0,1,14,7.46l.26,0a2.55,2.55,0,0,1,1.88,1.17l.09.11a3.6,3.6,0,0,0,2.26,1.61,2.67,2.67,0,0,0,.5,0,3.37,3.37,0,0,0,2.77-1.65c.5-.64.74-.88,1.19-.88s.7.24,1.2.88a3.37,3.37,0,0,0,2.76,1.65,3.37,3.37,0,0,0,2.77-1.65c.5-.64.74-.88,1.19-.88s.7.24,1.2.88a3.14,3.14,0,0,0,5.53,0c.5-.64.74-.88,1.19-.88s.7.24,1.2.88a3.39,3.39,0,0,0,2.77,1.65,2.67,2.67,0,0,0,.5,0A3.56,3.56,0,0,0,45.5,8.79a2.29,2.29,0,0,1,1.92-1.2h.11A2.32,2.32,0,0,1,49.85,9.9a1.64,1.64,0,0,1,0,.38,2.07,2.07,0,0,1-.32.8,3.13,3.13,0,0,1-.2.3,1,1,0,0,1-.18.19,3.72,3.72,0,0,1-.57.41l-.15.1a3.81,3.81,0,0,0-1.87,2,2.72,2.72,0,0,0-.11.72,3.24,3.24,0,0,0,2,2.73c.78.49,1,.71,1,1s-.26.55-1,1a3.24,3.24,0,0,0-2,2.73,3.24,3.24,0,0,0,2,2.73c.78.49,1,.71,1,1s-.26.55-1,1a3.27,3.27,0,0,0-2,2.74,3.26,3.26,0,0,0,2,2.73c.78.48,1,.7,1,1s-.26.55-1,1a3.26,3.26,0,0,0-2,2.73,3.27,3.27,0,0,0,2,2.74c.78.48,1,.7,1,1s-.26.56-1,1a3.26,3.26,0,0,0-2,2.74,2.58,2.58,0,0,0,.2,1,4.06,4.06,0,0,0,1.78,1.73,4.14,4.14,0,0,1,1.29,1.12A2,2,0,0,1,50,50.18Z"/><path class="a" d="M36.68,28.35h-3.6a1.16,1.16,0,0,1-.67-.21,1.11,1.11,0,0,1-.41-.56l-1.11-3.41a.24.24,0,0,0-.22-.16.24.24,0,0,0-.23.16l-1.11,3.41h0a1.28,1.28,0,0,1-.42.58,1.33,1.33,0,0,1-.66.27l-3.58-.07a.29.29,0,0,0-.18.07.22.22,0,0,0-.06.17.25.25,0,0,0,.09.2l2.89,2.1a1.07,1.07,0,0,1,.41.57,1.12,1.12,0,0,1,0,.7l-1.11,3.41h0a.23.23,0,0,0,0,.18.24.24,0,0,0,.14.12.23.23,0,0,0,.21,0l2.9-2.1h0a1.13,1.13,0,0,1,1.34,0l2.9,2.1h0a.24.24,0,0,0,.28,0,.24.24,0,0,0,.09-.27l-1.08-3.4a1.19,1.19,0,0,1,0-.7,1.12,1.12,0,0,1,.41-.57l2.9-2.1a.27.27,0,0,0,.1-.16.24.24,0,0,0-.05-.18A.31.31,0,0,0,36.68,28.35Z"/><polyline class="c" points="19.39 16.42 19.39 13.52 41.94 13.52 41.94 46.48 19.39 46.48 19.39 15.76"/><polyline class="d" points="19.39 16.42 19.39 13.52 41.94 13.52 41.94 46.48 19.39 46.48 19.39 15.76"/></svg>